<?xml version="1.0" standalone="no"?>
<!DOCTYPE svg PUBLIC "-//W3C//DTD SVG 20010904//EN"
 "http://www.w3.org/TR/2001/REC-SVG-20010904/DTD/svg10.dtd">
<svg version="1.0" xmlns="http://www.w3.org/2000/svg"
 width="1920.000000pt" height="1920.000000pt" viewBox="0 0 1920.000000 1920.000000"
 preserveAspectRatio="xMidYMid meet">

<g transform="translate(0.000000,1920.000000) scale(0.100000,-0.100000)"
fill="#000000" stroke="none">
<path d="M7125 13667 c-16 -8 -39 -24 -50 -37 -19 -21 -20 -40 -25 -419 l-5
-396 -100 5 c-183 9 -708 3 -845 -9 -147 -14 -195 -31 -234 -84 -20 -27 -21
-42 -24 -323 l-3 -294 -24 0 c-37 0 -318 -57 -445 -91 -145 -38 -443 -135
-493 -161 -21 -10 -47 -33 -57 -51 -20 -32 -20 -69 -20 -2726 0 -2683 0 -2694
20 -2726 21 -34 73 -65 109 -65 12 0 101 27 199 59 571 191 1215 263 1867 210
930 -75 1822 -428 2428 -961 l88 -78 85 0 86 0 86 73 c929 786 2301 1135 3626
922 240 -39 442 -89 692 -172 163 -54 174 -56 213 -44 30 9 49 23 69 53 l27
42 3 2670 c2 1831 0 2682 -8 2707 -18 65 -49 84 -233 145 -256 84 -577 161
-827 197 -13 2 -16 45 -20 299 -5 280 -6 298 -26 325 -31 43 -79 61 -199 75
-122 14 -835 18 -897 5 l-38 -8 0 383 c0 429 -1 432 -71 470 -40 21 -165 24
-349 8 -773 -71 -1489 -395 -2037 -924 l-93 -89 -75 69 c-142 130 -210 187
-332 278 -541 405 -1226 652 -1868 672 -134 4 -176 2 -200 -9z m425 -273 c644
-83 1284 -401 1762 -876 l108 -106 0 -2446 c0 -1345 -2 -2446 -5 -2446 -2 0
-50 38 -107 85 -541 453 -1172 716 -1860 776 l-138 12 0 2514 0 2514 63 -6
c34 -4 114 -13 177 -21z m4278 -2481 l-3 -2508 -110 -7 c-705 -47 -1364 -322
-1912 -797 l-83 -71 0 2441 0 2441 73 75 c96 100 238 223 374 325 423 316 954
530 1463 587 52 6 109 13 125 15 17 1 40 4 53 5 l22 1 -2 -2507z m-4875 1640
l67 -6 0 -2164 c0 -2389 -5 -2208 62 -2248 27 -15 62 -20 199 -26 790 -35
1493 -350 2057 -921 l82 -84 -2 -236 -3 -236 -100 74 c-361 269 -813 492
-1278 633 -516 156 -1016 220 -1634 208 l-293 -5 0 2503 0 2504 48 4 c85 6
725 7 795 0z m5976 1 l61 -7 0 -2503 0 -2502 -272 5 c-880 18 -1645 -145
-2338 -498 -208 -105 -478 -275 -627 -396 l-33 -26 0 242 0 241 128 128 c284
286 611 502 989 655 327 133 743 217 1067 217 116 0 157 15 193 69 l23 34 0
2168 0 2168 43 4 c75 6 702 7 766 1z m-7099 -2964 c0 -2221 0 -2261 19 -2299
32 -62 56 -67 240 -50 194 17 717 18 896 1 558 -54 1058 -189 1531 -412 303
-143 649 -369 863 -562 l41 -38 0 -125 c0 -69 -2 -125 -4 -125 -2 0 -56 37
-120 83 -728 520 -1710 817 -2701 817 -484 0 -882 -48 -1310 -157 -98 -25
-185 -47 -192 -50 -11 -4 -13 451 -13 2495 l0 2499 173 51 c258 76 477 128
555 131 l22 1 0 -2260z m7625 2224 c135 -22 348 -75 500 -124 l125 -41 0
-2495 c0 -2063 -2 -2494 -13 -2494 -8 0 -51 11 -98 26 -309 93 -674 157 -1064
185 -205 15 -704 6 -884 -15 -636 -76 -1167 -231 -1676 -491 -215 -110 -343
-189 -605 -374 -20 -13 -20 -10 -20 116 l0 129 103 86 c617 516 1435 835 2332
909 180 14 818 7 932 -11 65 -10 88 -10 111 -1 43 18 82 63 93 107 5 23 9 983
9 2269 0 1227 0 2233 0 2237 0 4 12 5 28 3 15 -3 72 -12 127 -21z"/>
</g>
</svg>
